
<svg xmlns="http://www.w3.org/2000/svg" width="1820" height="2570" viewBox="0 0 1820 2570">
  <line x1="0" y1="75.58823529411765" x2="1820" y2="75.58823529411765" stroke="blue" stroke-opacity="0.333" stroke-width="1"></line>
  <line x1="0" y1="151.1764705882353" x2="1820" y2="151.1764705882353" stroke="blue" stroke-opacity="0.333" stroke-width="1"></line>
  <line x1="0" y1="226.76470588235296" x2="1820" y2="226.76470588235296" stroke="blue" stroke-opacity="0.333" stroke-width="1"></line>
  <line x1="0" y1="302.3529411764706" x2="1820" y2="302.3529411764706" stroke="blue" stroke-opacity="0.333" stroke-width="1"></line>
  <line x1="0" y1="377.9411764705883" x2="1820" y2="377.9411764705883" stroke="blue" stroke-opacity="0.333" stroke-width="1"></line>
  <line x1="0" y1="453.5294117647059" x2="1820" y2="453.5294117647059" stroke="blue" stroke-opacity="0.333" stroke-width="1"></line>
  <line x1="0" y1="529.1176470588235" x2="1820" y2="529.1176470588235" stroke="blue" stroke-opacity="0.333" stroke-width="1"></line>
  <line x1="0" y1="604.7058823529412" x2="1820" y2="604.7058823529412" stroke="blue" stroke-opacity="0.333" stroke-width="1"></line>
  <line x1="0" y1="680.2941176470589" x2="1820" y2="680.2941176470589" stroke="blue" stroke-opacity="0.333" stroke-width="1"></line>
  <line x1="0" y1="755.8823529411766" x2="1820" y2="755.8823529411766" stroke="blue" stroke-opacity="0.333" stroke-width="1"></line>
  <line x1="0" y1="831.4705882352941" x2="1820" y2="831.4705882352941" stroke="blue" stroke-opacity="0.333" stroke-width="1"></line>
  <line x1="0" y1="907.0588235294118" x2="1820" y2="907.0588235294118" stroke="blue" stroke-opacity="0.333" stroke-width="1"></line>
  <line x1="0" y1="982.6470588235295" x2="1820" y2="982.6470588235295" stroke="blue" stroke-opacity="0.333" stroke-width="1"></line>
  <line x1="0" y1="1058.235294117647" x2="1820" y2="1058.235294117647" stroke="blue" stroke-opacity="0.333" stroke-width="1"></line>
  <line x1="0" y1="1133.8235294117649" x2="1820" y2="1133.8235294117649" stroke="blue" stroke-opacity="0.333" stroke-width="1"></line>
  <line x1="0" y1="1209.4117647058824" x2="1820" y2="1209.4117647058824" stroke="blue" stroke-opacity="0.333" stroke-width="1"></line>
  <line x1="0" y1="1285" x2="1820" y2="1285" stroke="blue" stroke-opacity="0.333" stroke-width="1"></line>
  <line x1="0" y1="1360.5882352941178" x2="1820" y2="1360.5882352941178" stroke="blue" stroke-opacity="0.333" stroke-width="1"></line>
  <line x1="0" y1="1436.1764705882354" x2="1820" y2="1436.1764705882354" stroke="blue" stroke-opacity="0.333" stroke-width="1"></line>
  <line x1="0" y1="1511.7647058823532" x2="1820" y2="1511.7647058823532" stroke="blue" stroke-opacity="0.333" stroke-width="1"></line>
  <line x1="0" y1="1587.3529411764707" x2="1820" y2="1587.3529411764707" stroke="blue" stroke-opacity="0.333" stroke-width="1"></line>
  <line x1="0" y1="1662.9411764705883" x2="1820" y2="1662.9411764705883" stroke="blue" stroke-opacity="0.333" stroke-width="1"></line>
  <line x1="0" y1="1738.529411764706" x2="1820" y2="1738.529411764706" stroke="blue" stroke-opacity="0.333" stroke-width="1"></line>
  <line x1="0" y1="1814.1176470588236" x2="1820" y2="1814.1176470588236" stroke="blue" stroke-opacity="0.333" stroke-width="1"></line>
  <line x1="0" y1="1889.7058823529412" x2="1820" y2="1889.7058823529412" stroke="blue" stroke-opacity="0.333" stroke-width="1"></line>
  <line x1="0" y1="1965.294117647059" x2="1820" y2="1965.294117647059" stroke="blue" stroke-opacity="0.333" stroke-width="1"></line>
  <line x1="0" y1="2040.8823529411766" x2="1820" y2="2040.8823529411766" stroke="blue" stroke-opacity="0.333" stroke-width="1"></line>
  <line x1="0" y1="2116.470588235294" x2="1820" y2="2116.470588235294" stroke="blue" stroke-opacity="0.333" stroke-width="1"></line>
  <line x1="0" y1="2192.0588235294117" x2="1820" y2="2192.0588235294117" stroke="blue" stroke-opacity="0.333" stroke-width="1"></line>
  <line x1="0" y1="2267.6470588235297" x2="1820" y2="2267.6470588235297" stroke="blue" stroke-opacity="0.333" stroke-width="1"></line>
  <line x1="0" y1="2343.2352941176473" x2="1820" y2="2343.2352941176473" stroke="blue" stroke-opacity="0.333" stroke-width="1"></line>
  <line x1="0" y1="2418.823529411765" x2="1820" y2="2418.823529411765" stroke="blue" stroke-opacity="0.333" stroke-width="1"></line>
  <line x1="0" y1="2494.4117647058824" x2="1820" y2="2494.4117647058824" stroke="blue" stroke-opacity="0.333" stroke-width="1"></line>
  <line x1="150" y1="75.58823529411765" x2="150" y2="2494.4117647058824" stroke="red" stroke-opacity="0.333" stroke-width="1"></line>
</svg>