
<svg xmlns="http://www.w3.org/2000/svg" width="1820" height="2570" viewBox="0 0 1820 2570">
  <line x1="0" y1="80.3125" x2="1820" y2="80.3125" stroke="blue" stroke-opacity="0.5" stroke-width="1"></line>
  <line x1="0" y1="160.625" x2="1820" y2="160.625" stroke="blue" stroke-opacity="0.5" stroke-width="1"></line>
  <line x1="0" y1="240.9375" x2="1820" y2="240.9375" stroke="blue" stroke-opacity="0.5" stroke-width="1"></line>
  <line x1="0" y1="321.25" x2="1820" y2="321.25" stroke="blue" stroke-opacity="0.5" stroke-width="1"></line>
  <line x1="0" y1="401.5625" x2="1820" y2="401.5625" stroke="blue" stroke-opacity="0.5" stroke-width="1"></line>
  <line x1="0" y1="481.875" x2="1820" y2="481.875" stroke="blue" stroke-opacity="0.5" stroke-width="1"></line>
  <line x1="0" y1="562.1875" x2="1820" y2="562.1875" stroke="blue" stroke-opacity="0.5" stroke-width="1"></line>
  <line x1="0" y1="642.5" x2="1820" y2="642.5" stroke="blue" stroke-opacity="0.5" stroke-width="1"></line>
  <line x1="0" y1="722.8125" x2="1820" y2="722.8125" stroke="blue" stroke-opacity="0.5" stroke-width="1"></line>
  <line x1="0" y1="803.125" x2="1820" y2="803.125" stroke="blue" stroke-opacity="0.5" stroke-width="1"></line>
  <line x1="0" y1="883.4375" x2="1820" y2="883.4375" stroke="blue" stroke-opacity="0.5" stroke-width="1"></line>
  <line x1="0" y1="963.75" x2="1820" y2="963.75" stroke="blue" stroke-opacity="0.5" stroke-width="1"></line>
  <line x1="0" y1="1044.0625" x2="1820" y2="1044.0625" stroke="blue" stroke-opacity="0.5" stroke-width="1"></line>
  <line x1="0" y1="1124.375" x2="1820" y2="1124.375" stroke="blue" stroke-opacity="0.5" stroke-width="1"></line>
  <line x1="0" y1="1204.6875" x2="1820" y2="1204.6875" stroke="blue" stroke-opacity="0.5" stroke-width="1"></line>
  <line x1="0" y1="1285" x2="1820" y2="1285" stroke="blue" stroke-opacity="0.5" stroke-width="1"></line>
  <line x1="0" y1="1365.3125" x2="1820" y2="1365.3125" stroke="blue" stroke-opacity="0.5" stroke-width="1"></line>
  <line x1="0" y1="1445.625" x2="1820" y2="1445.625" stroke="blue" stroke-opacity="0.5" stroke-width="1"></line>
  <line x1="0" y1="1525.9375" x2="1820" y2="1525.9375" stroke="blue" stroke-opacity="0.5" stroke-width="1"></line>
  <line x1="0" y1="1606.25" x2="1820" y2="1606.25" stroke="blue" stroke-opacity="0.5" stroke-width="1"></line>
  <line x1="0" y1="1686.5625" x2="1820" y2="1686.5625" stroke="blue" stroke-opacity="0.5" stroke-width="1"></line>
  <line x1="0" y1="1766.875" x2="1820" y2="1766.875" stroke="blue" stroke-opacity="0.5" stroke-width="1"></line>
  <line x1="0" y1="1847.1875" x2="1820" y2="1847.1875" stroke="blue" stroke-opacity="0.5" stroke-width="1"></line>
  <line x1="0" y1="1927.5" x2="1820" y2="1927.5" stroke="blue" stroke-opacity="0.5" stroke-width="1"></line>
  <line x1="0" y1="2007.8125" x2="1820" y2="2007.8125" stroke="blue" stroke-opacity="0.5" stroke-width="1"></line>
  <line x1="0" y1="2088.125" x2="1820" y2="2088.125" stroke="blue" stroke-opacity="0.5" stroke-width="1"></line>
  <line x1="0" y1="2168.4375" x2="1820" y2="2168.4375" stroke="blue" stroke-opacity="0.5" stroke-width="1"></line>
  <line x1="0" y1="2248.75" x2="1820" y2="2248.75" stroke="blue" stroke-opacity="0.5" stroke-width="1"></line>
  <line x1="0" y1="2329.0625" x2="1820" y2="2329.0625" stroke="blue" stroke-opacity="0.5" stroke-width="1"></line>
  <line x1="0" y1="2409.375" x2="1820" y2="2409.375" stroke="blue" stroke-opacity="0.5" stroke-width="1"></line>
  <line x1="0" y1="2489.6875" x2="1820" y2="2489.6875" stroke="blue" stroke-opacity="0.5" stroke-width="1"></line>
  <line x1="150" y1="80.3125" x2="150" y2="2489.6875" stroke="red" stroke-opacity="0.5" stroke-width="1"></line>
</svg>